<mxfile host="app.diagrams.net" modified="2024-02-27T07:12:21.455Z" agent="Mozilla/5.0 (Macintosh; Intel Mac OS X 10_15_7) AppleWebKit/537.36 (KHTML, like Gecko) Chrome/122.0.0.0 Safari/537.36" etag="YAI7cXSDpOuT51Bf2Hp_" version="23.1.6" type="github">
  <diagram name="第 1 页" id="zbdO7eQ88cFpysElhMqy">
    <mxGraphModel dx="1562" dy="2027" grid="1" gridSize="10" guides="1" tooltips="1" connect="1" arrows="1" fold="1" page="1" pageScale="1" pageWidth="827" pageHeight="1169" math="0" shadow="0">
      <root>
        <mxCell id="0" />
        <mxCell id="1" parent="0" />
        <mxCell id="d2fqO_VrkGDKA1mTlmpz-1" value="" style="rounded=0;whiteSpace=wrap;html=1;fillColor=#fff2cc;strokeColor=#d6b656;shadow=1;" vertex="1" parent="1">
          <mxGeometry x="780" y="290" width="770" height="450" as="geometry" />
        </mxCell>
        <mxCell id="d2fqO_VrkGDKA1mTlmpz-2" value="" style="rounded=0;whiteSpace=wrap;html=1;dashed=1;fillColor=#fff2cc;strokeColor=#000000;" vertex="1" parent="1">
          <mxGeometry x="1170" y="401.5" width="356.5" height="318.5" as="geometry" />
        </mxCell>
        <mxCell id="d2fqO_VrkGDKA1mTlmpz-3" style="edgeStyle=orthogonalEdgeStyle;rounded=0;orthogonalLoop=1;jettySize=auto;html=1;exitX=1;exitY=0.5;exitDx=0;exitDy=0;entryX=0.5;entryY=0;entryDx=0;entryDy=0;" edge="1" parent="1" source="d2fqO_VrkGDKA1mTlmpz-4" target="d2fqO_VrkGDKA1mTlmpz-50">
          <mxGeometry relative="1" as="geometry">
            <Array as="points">
              <mxPoint x="1150" y="571" />
              <mxPoint x="1160" y="571" />
              <mxPoint x="1160" y="390" />
              <mxPoint x="1352" y="390" />
              <mxPoint x="1352" y="443" />
            </Array>
          </mxGeometry>
        </mxCell>
        <mxCell id="d2fqO_VrkGDKA1mTlmpz-4" value="" style="rounded=0;whiteSpace=wrap;html=1;dashed=1;fillColor=#fff2cc;strokeColor=#000000;" vertex="1" parent="1">
          <mxGeometry x="800" y="401.5" width="350" height="318.5" as="geometry" />
        </mxCell>
        <mxCell id="d2fqO_VrkGDKA1mTlmpz-5" value="" style="rounded=0;whiteSpace=wrap;html=1;fillColor=#E1D5E7;shadow=1;" vertex="1" parent="1">
          <mxGeometry x="780" y="15" width="770" height="250" as="geometry" />
        </mxCell>
        <mxCell id="d2fqO_VrkGDKA1mTlmpz-6" style="edgeStyle=orthogonalEdgeStyle;rounded=0;orthogonalLoop=1;jettySize=auto;html=1;exitX=0.5;exitY=1;exitDx=0;exitDy=0;entryX=0.5;entryY=0;entryDx=0;entryDy=0;" edge="1" parent="1" target="d2fqO_VrkGDKA1mTlmpz-9">
          <mxGeometry relative="1" as="geometry">
            <mxPoint x="1165" y="5" as="sourcePoint" />
          </mxGeometry>
        </mxCell>
        <mxCell id="d2fqO_VrkGDKA1mTlmpz-7" value="预处理" style="text;html=1;align=center;verticalAlign=middle;whiteSpace=wrap;rounded=0;fontSize=14;" vertex="1" parent="1">
          <mxGeometry x="780" y="20" width="110" height="30" as="geometry" />
        </mxCell>
        <mxCell id="d2fqO_VrkGDKA1mTlmpz-8" value="" style="edgeStyle=orthogonalEdgeStyle;rounded=0;orthogonalLoop=1;jettySize=auto;html=1;" edge="1" parent="1" source="d2fqO_VrkGDKA1mTlmpz-9" target="d2fqO_VrkGDKA1mTlmpz-13">
          <mxGeometry relative="1" as="geometry" />
        </mxCell>
        <mxCell id="d2fqO_VrkGDKA1mTlmpz-9" value="&lt;font color=&quot;#d28e19&quot;&gt;[PacketResponder],&lt;/font&gt; [1], [for], [block],&amp;nbsp;&lt;font color=&quot;#67ab9f&quot;&gt;[blk_387878213782378812],&lt;/font&gt; [terminating]" style="rounded=1;whiteSpace=wrap;html=1;fillColor=#f5f5f5;strokeColor=#666666;fontColor=#333333;" vertex="1" parent="1">
          <mxGeometry x="915" y="65" width="500" height="40" as="geometry" />
        </mxCell>
        <mxCell id="d2fqO_VrkGDKA1mTlmpz-10" value="Delimiter [&#39;,!?=&#39;]" style="text;html=1;align=center;verticalAlign=middle;whiteSpace=wrap;rounded=0;" vertex="1" parent="1">
          <mxGeometry x="1308" y="41" width="110" height="30" as="geometry" />
        </mxCell>
        <mxCell id="d2fqO_VrkGDKA1mTlmpz-11" value="&lt;font color=&quot;#a9c4eb&quot;&gt;[CLS],&lt;/font&gt;&lt;font color=&quot;#d28e19&quot;&gt; [PacketResponder],&lt;/font&gt; [1], [for], &lt;font color=&quot;#ea6b66&quot;&gt;[MASK]&lt;/font&gt;,&amp;nbsp;&lt;font color=&quot;#67ab9f&quot;&gt;[blk_387878213782378812],&lt;/font&gt; [terminating]" style="rounded=1;whiteSpace=wrap;html=1;fillColor=#f5f5f5;strokeColor=#666666;fontColor=#333333;" vertex="1" parent="1">
          <mxGeometry x="915" y="205" width="500" height="40" as="geometry" />
        </mxCell>
        <mxCell id="d2fqO_VrkGDKA1mTlmpz-12" value="WordPiece" style="text;html=1;align=center;verticalAlign=middle;whiteSpace=wrap;rounded=0;" vertex="1" parent="1">
          <mxGeometry x="1321" y="112" width="110" height="30" as="geometry" />
        </mxCell>
        <mxCell id="d2fqO_VrkGDKA1mTlmpz-13" value="&lt;font color=&quot;#d28e19&quot;&gt;[Packet,##res,##pon,##der],&lt;/font&gt; [1], [for], [block],&amp;nbsp;&lt;font color=&quot;#67ab9f&quot;&gt;[b,##lk, 38,##78,...],&lt;/font&gt; [terminating]" style="rounded=1;whiteSpace=wrap;html=1;fillColor=#f5f5f5;strokeColor=#666666;fontColor=#333333;" vertex="1" parent="1">
          <mxGeometry x="915" y="135" width="500" height="40" as="geometry" />
        </mxCell>
        <mxCell id="d2fqO_VrkGDKA1mTlmpz-14" value="Random mask" style="text;html=1;align=center;verticalAlign=middle;whiteSpace=wrap;rounded=0;" vertex="1" parent="1">
          <mxGeometry x="1313" y="181" width="110" height="30" as="geometry" />
        </mxCell>
        <mxCell id="d2fqO_VrkGDKA1mTlmpz-15" value="" style="edgeStyle=orthogonalEdgeStyle;rounded=0;orthogonalLoop=1;jettySize=auto;html=1;" edge="1" parent="1">
          <mxGeometry relative="1" as="geometry">
            <mxPoint x="1164.83" y="175" as="sourcePoint" />
            <mxPoint x="1164.83" y="205" as="targetPoint" />
          </mxGeometry>
        </mxCell>
        <mxCell id="d2fqO_VrkGDKA1mTlmpz-26" value="" style="rounded=1;whiteSpace=wrap;html=1;fillColor=#f5f5f5;strokeColor=#666666;fontColor=#333333;" vertex="1" parent="1">
          <mxGeometry x="800" y="334" width="520" height="40" as="geometry" />
        </mxCell>
        <mxCell id="d2fqO_VrkGDKA1mTlmpz-27" value="" style="rounded=1;whiteSpace=wrap;html=1;fillColor=#ffe6cc;strokeColor=#d79b00;" vertex="1" parent="1">
          <mxGeometry x="827" y="422" width="310" height="190" as="geometry" />
        </mxCell>
        <mxCell id="d2fqO_VrkGDKA1mTlmpz-28" value="Embedding层" style="text;html=1;align=center;verticalAlign=middle;whiteSpace=wrap;rounded=0;" vertex="1" parent="1">
          <mxGeometry x="801.25" y="339" width="100" height="30" as="geometry" />
        </mxCell>
        <mxCell id="d2fqO_VrkGDKA1mTlmpz-29" value="" style="group" vertex="1" connectable="0" parent="1">
          <mxGeometry x="884" y="466" width="180" height="95" as="geometry" />
        </mxCell>
        <mxCell id="d2fqO_VrkGDKA1mTlmpz-30" value="" style="endArrow=classic;html=1;rounded=0;" edge="1" parent="d2fqO_VrkGDKA1mTlmpz-29">
          <mxGeometry width="50" height="50" relative="1" as="geometry">
            <mxPoint x="40" y="25" as="sourcePoint" />
            <mxPoint x="40" y="95" as="targetPoint" />
          </mxGeometry>
        </mxCell>
        <mxCell id="d2fqO_VrkGDKA1mTlmpz-31" value="" style="endArrow=classic;html=1;rounded=0;" edge="1" parent="d2fqO_VrkGDKA1mTlmpz-29">
          <mxGeometry width="50" height="50" relative="1" as="geometry">
            <mxPoint x="100" y="25" as="sourcePoint" />
            <mxPoint x="100" y="95" as="targetPoint" />
          </mxGeometry>
        </mxCell>
        <mxCell id="d2fqO_VrkGDKA1mTlmpz-32" value="" style="endArrow=classic;html=1;rounded=0;" edge="1" parent="d2fqO_VrkGDKA1mTlmpz-29">
          <mxGeometry width="50" height="50" relative="1" as="geometry">
            <mxPoint x="160" y="25" as="sourcePoint" />
            <mxPoint x="160" y="95" as="targetPoint" />
          </mxGeometry>
        </mxCell>
        <mxCell id="d2fqO_VrkGDKA1mTlmpz-33" value="Q" style="text;html=1;align=center;verticalAlign=middle;whiteSpace=wrap;rounded=0;" vertex="1" parent="d2fqO_VrkGDKA1mTlmpz-29">
          <mxGeometry y="45" width="60" height="30" as="geometry" />
        </mxCell>
        <mxCell id="d2fqO_VrkGDKA1mTlmpz-34" value="K" style="text;html=1;align=center;verticalAlign=middle;whiteSpace=wrap;rounded=0;" vertex="1" parent="d2fqO_VrkGDKA1mTlmpz-29">
          <mxGeometry x="60" y="45" width="60" height="30" as="geometry" />
        </mxCell>
        <mxCell id="d2fqO_VrkGDKA1mTlmpz-35" value="V" style="text;html=1;align=center;verticalAlign=middle;whiteSpace=wrap;rounded=0;" vertex="1" parent="d2fqO_VrkGDKA1mTlmpz-29">
          <mxGeometry x="120" y="45" width="60" height="30" as="geometry" />
        </mxCell>
        <mxCell id="d2fqO_VrkGDKA1mTlmpz-36" value="注意力模块" style="text;html=1;align=center;verticalAlign=middle;whiteSpace=wrap;rounded=0;" vertex="1" parent="1">
          <mxGeometry x="827" y="430" width="100" height="30" as="geometry" />
        </mxCell>
        <mxCell id="d2fqO_VrkGDKA1mTlmpz-37" style="edgeStyle=orthogonalEdgeStyle;rounded=0;orthogonalLoop=1;jettySize=auto;html=1;exitX=0.5;exitY=1;exitDx=0;exitDy=0;entryX=0.5;entryY=0;entryDx=0;entryDy=0;" edge="1" parent="1" target="d2fqO_VrkGDKA1mTlmpz-38">
          <mxGeometry relative="1" as="geometry">
            <mxPoint x="977.4999999999995" y="696" as="sourcePoint" />
          </mxGeometry>
        </mxCell>
        <mxCell id="d2fqO_VrkGDKA1mTlmpz-38" value="层归一化" style="rounded=1;whiteSpace=wrap;html=1;fillColor=#f5f5f5;strokeColor=#666666;fontColor=#333333;" vertex="1" parent="1">
          <mxGeometry x="901" y="677" width="165" height="30" as="geometry" />
        </mxCell>
        <mxCell id="d2fqO_VrkGDKA1mTlmpz-39" value="&lt;font style=&quot;font-size: 14px;&quot;&gt;自注意力模型&lt;/font&gt;" style="text;html=1;align=center;verticalAlign=middle;whiteSpace=wrap;rounded=0;" vertex="1" parent="1">
          <mxGeometry x="757" y="300" width="180" height="30" as="geometry" />
        </mxCell>
        <mxCell id="d2fqO_VrkGDKA1mTlmpz-40" value="" style="group;fillColor=#f5f5f5;strokeColor=#666666;fontColor=#333333;" vertex="1" connectable="0" parent="1">
          <mxGeometry x="897" y="462" width="174" height="30" as="geometry" />
        </mxCell>
        <mxCell id="d2fqO_VrkGDKA1mTlmpz-41" value="" style="rounded=1;whiteSpace=wrap;html=1;fillColor=#f5f5f5;strokeColor=#666666;fontColor=#333333;" vertex="1" parent="d2fqO_VrkGDKA1mTlmpz-40">
          <mxGeometry width="174" height="30" as="geometry" />
        </mxCell>
        <mxCell id="d2fqO_VrkGDKA1mTlmpz-42" value="W_Q" style="text;html=1;align=center;verticalAlign=middle;whiteSpace=wrap;rounded=0;" vertex="1" parent="d2fqO_VrkGDKA1mTlmpz-40">
          <mxGeometry width="50" height="30" as="geometry" />
        </mxCell>
        <mxCell id="d2fqO_VrkGDKA1mTlmpz-43" value="W_K" style="text;html=1;align=center;verticalAlign=middle;whiteSpace=wrap;rounded=0;" vertex="1" parent="d2fqO_VrkGDKA1mTlmpz-40">
          <mxGeometry x="67" width="40" height="30" as="geometry" />
        </mxCell>
        <mxCell id="d2fqO_VrkGDKA1mTlmpz-44" value="W_V" style="text;html=1;align=center;verticalAlign=middle;whiteSpace=wrap;rounded=0;" vertex="1" parent="d2fqO_VrkGDKA1mTlmpz-40">
          <mxGeometry x="114" width="60" height="30" as="geometry" />
        </mxCell>
        <mxCell id="d2fqO_VrkGDKA1mTlmpz-45" style="edgeStyle=orthogonalEdgeStyle;rounded=0;orthogonalLoop=1;jettySize=auto;html=1;exitX=0.5;exitY=1;exitDx=0;exitDy=0;entryX=0.5;entryY=0;entryDx=0;entryDy=0;" edge="1" parent="1" source="d2fqO_VrkGDKA1mTlmpz-46" target="d2fqO_VrkGDKA1mTlmpz-48">
          <mxGeometry relative="1" as="geometry" />
        </mxCell>
        <mxCell id="d2fqO_VrkGDKA1mTlmpz-46" value="多头自注意力" style="rounded=1;whiteSpace=wrap;html=1;fillColor=#f5f5f5;strokeColor=#666666;fontColor=#333333;" vertex="1" parent="1">
          <mxGeometry x="901" y="562" width="170" height="30" as="geometry" />
        </mxCell>
        <mxCell id="d2fqO_VrkGDKA1mTlmpz-47" style="edgeStyle=orthogonalEdgeStyle;rounded=0;orthogonalLoop=1;jettySize=auto;html=1;exitX=0.5;exitY=1;exitDx=0;exitDy=0;entryX=0.5;entryY=0;entryDx=0;entryDy=0;" edge="1" parent="1" source="d2fqO_VrkGDKA1mTlmpz-48" target="d2fqO_VrkGDKA1mTlmpz-38">
          <mxGeometry relative="1" as="geometry" />
        </mxCell>
        <mxCell id="d2fqO_VrkGDKA1mTlmpz-48" value="Add &amp;amp; Norm" style="rounded=1;whiteSpace=wrap;html=1;fillColor=#f5f5f5;strokeColor=#666666;fontColor=#333333;" vertex="1" parent="1">
          <mxGeometry x="901.25" y="628" width="165.5" height="30" as="geometry" />
        </mxCell>
        <mxCell id="d2fqO_VrkGDKA1mTlmpz-49" value="Weighted" style="text;html=1;align=center;verticalAlign=middle;whiteSpace=wrap;rounded=0;" vertex="1" parent="1">
          <mxGeometry x="821.25" y="616" width="60" height="30" as="geometry" />
        </mxCell>
        <mxCell id="d2fqO_VrkGDKA1mTlmpz-50" value="" style="rounded=1;whiteSpace=wrap;html=1;fillColor=#ffe6cc;strokeColor=#d79b00;" vertex="1" parent="1">
          <mxGeometry x="1196.5" y="430" width="310" height="153.5" as="geometry" />
        </mxCell>
        <mxCell id="d2fqO_VrkGDKA1mTlmpz-51" style="edgeStyle=orthogonalEdgeStyle;rounded=0;orthogonalLoop=1;jettySize=auto;html=1;exitX=0.5;exitY=1;exitDx=0;exitDy=0;entryX=0.5;entryY=0;entryDx=0;entryDy=0;" edge="1" parent="1" source="d2fqO_VrkGDKA1mTlmpz-52" target="d2fqO_VrkGDKA1mTlmpz-54">
          <mxGeometry relative="1" as="geometry" />
        </mxCell>
        <mxCell id="d2fqO_VrkGDKA1mTlmpz-52" value="带激活函数的前馈网络（w1）" style="rounded=1;whiteSpace=wrap;html=1;fillColor=#f5f5f5;strokeColor=#666666;fontColor=#333333;" vertex="1" parent="1">
          <mxGeometry x="1221.5" y="464.5" width="260" height="40" as="geometry" />
        </mxCell>
        <mxCell id="d2fqO_VrkGDKA1mTlmpz-53" style="edgeStyle=orthogonalEdgeStyle;rounded=0;orthogonalLoop=1;jettySize=auto;html=1;exitX=0.5;exitY=1;exitDx=0;exitDy=0;entryX=0.5;entryY=0;entryDx=0;entryDy=0;" edge="1" parent="1" source="d2fqO_VrkGDKA1mTlmpz-54" target="d2fqO_VrkGDKA1mTlmpz-58">
          <mxGeometry relative="1" as="geometry" />
        </mxCell>
        <mxCell id="d2fqO_VrkGDKA1mTlmpz-54" value="前馈网络（w2）" style="rounded=1;whiteSpace=wrap;html=1;fillColor=#f5f5f5;strokeColor=#666666;fontColor=#333333;" vertex="1" parent="1">
          <mxGeometry x="1221.5" y="526.5" width="260" height="40" as="geometry" />
        </mxCell>
        <mxCell id="d2fqO_VrkGDKA1mTlmpz-55" style="edgeStyle=orthogonalEdgeStyle;rounded=0;orthogonalLoop=1;jettySize=auto;html=1;exitX=0.5;exitY=1;exitDx=0;exitDy=0;entryX=0.5;entryY=0;entryDx=0;entryDy=0;" edge="1" parent="1" target="d2fqO_VrkGDKA1mTlmpz-56">
          <mxGeometry relative="1" as="geometry">
            <mxPoint x="1345.1199999999994" y="691.5" as="sourcePoint" />
          </mxGeometry>
        </mxCell>
        <mxCell id="d2fqO_VrkGDKA1mTlmpz-56" value="层归一化" style="rounded=1;whiteSpace=wrap;html=1;fillColor=#f5f5f5;strokeColor=#666666;fontColor=#333333;" vertex="1" parent="1">
          <mxGeometry x="1268.62" y="672.5" width="165" height="30" as="geometry" />
        </mxCell>
        <mxCell id="d2fqO_VrkGDKA1mTlmpz-57" style="edgeStyle=orthogonalEdgeStyle;rounded=0;orthogonalLoop=1;jettySize=auto;html=1;exitX=0.5;exitY=1;exitDx=0;exitDy=0;entryX=0.5;entryY=0;entryDx=0;entryDy=0;" edge="1" parent="1" source="d2fqO_VrkGDKA1mTlmpz-58" target="d2fqO_VrkGDKA1mTlmpz-56">
          <mxGeometry relative="1" as="geometry" />
        </mxCell>
        <mxCell id="d2fqO_VrkGDKA1mTlmpz-58" value="Add &amp;amp; Norm" style="rounded=1;whiteSpace=wrap;html=1;fillColor=#f5f5f5;strokeColor=#666666;fontColor=#333333;" vertex="1" parent="1">
          <mxGeometry x="1268.87" y="623.5" width="165.5" height="30" as="geometry" />
        </mxCell>
        <mxCell id="d2fqO_VrkGDKA1mTlmpz-59" style="edgeStyle=orthogonalEdgeStyle;rounded=0;orthogonalLoop=1;jettySize=auto;html=1;entryX=0.514;entryY=0.01;entryDx=0;entryDy=0;entryPerimeter=0;exitX=0.146;exitY=1.083;exitDx=0;exitDy=0;exitPerimeter=0;" edge="1" parent="1" target="d2fqO_VrkGDKA1mTlmpz-27">
          <mxGeometry relative="1" as="geometry">
            <mxPoint x="986.2979999999998" y="372.4899999999999" as="sourcePoint" />
          </mxGeometry>
        </mxCell>
        <mxCell id="d2fqO_VrkGDKA1mTlmpz-60" value="" style="endArrow=classic;html=1;rounded=0;entryX=0;entryY=0.5;entryDx=0;entryDy=0;edgeStyle=orthogonalEdgeStyle;" edge="1" parent="1" target="d2fqO_VrkGDKA1mTlmpz-58">
          <mxGeometry width="50" height="50" relative="1" as="geometry">
            <mxPoint x="1352" y="418" as="sourcePoint" />
            <mxPoint x="1263" y="699" as="targetPoint" />
            <Array as="points">
              <mxPoint x="1180" y="418" />
              <mxPoint x="1180" y="640" />
              <mxPoint x="1263" y="640" />
              <mxPoint x="1263" y="639" />
            </Array>
          </mxGeometry>
        </mxCell>
        <mxCell id="d2fqO_VrkGDKA1mTlmpz-61" value="Weighted" style="text;html=1;align=center;verticalAlign=middle;whiteSpace=wrap;rounded=0;" vertex="1" parent="1">
          <mxGeometry x="1196.5" y="612" width="60" height="30" as="geometry" />
        </mxCell>
        <mxCell id="d2fqO_VrkGDKA1mTlmpz-62" value="&lt;font style=&quot;border-color: var(--border-color);&quot; color=&quot;#a9c4eb&quot;&gt;[1.4, 0.5, ...],&amp;nbsp;&lt;/font&gt;[0.3, ...],&lt;span style=&quot;border-color: var(--border-color);&quot;&gt;&amp;nbsp;&lt;/span&gt;&lt;span style=&quot;border-color: var(--border-color);&quot;&gt;&lt;/span&gt;&lt;font style=&quot;border-color: var(--border-color);&quot; color=&quot;#d28e19&quot;&gt;[1.2, ...],&lt;/font&gt;&lt;span style=&quot;border-color: var(--border-color);&quot;&gt;&lt;span style=&quot;border-color: var(--border-color);&quot;&gt;&amp;nbsp;&lt;/span&gt;[0.23, ...],&lt;/span&gt;&lt;font style=&quot;border-color: var(--border-color);&quot; color=&quot;#67ab9f&quot;&gt;[0.25, ...],&lt;/font&gt;&lt;span style=&quot;border-color: var(--border-color);&quot;&gt;&lt;span style=&quot;border-color: var(--border-color);&quot;&gt;&amp;nbsp;&lt;/span&gt;[0.24, ...], [2.1, ...]&lt;/span&gt;" style="text;html=1;align=center;verticalAlign=middle;whiteSpace=wrap;rounded=0;" vertex="1" parent="1">
          <mxGeometry x="920" y="339" width="367" height="30" as="geometry" />
        </mxCell>
        <mxCell id="d2fqO_VrkGDKA1mTlmpz-63" value="" style="endArrow=classic;html=1;rounded=0;entryX=0;entryY=0.5;entryDx=0;entryDy=0;edgeStyle=orthogonalEdgeStyle;" edge="1" parent="1" target="d2fqO_VrkGDKA1mTlmpz-48">
          <mxGeometry width="50" height="50" relative="1" as="geometry">
            <mxPoint x="986" y="408.01" as="sourcePoint" />
            <mxPoint x="903" y="629.01" as="targetPoint" />
            <Array as="points">
              <mxPoint x="814" y="408" />
              <mxPoint x="814" y="643" />
            </Array>
          </mxGeometry>
        </mxCell>
        <mxCell id="d2fqO_VrkGDKA1mTlmpz-64" value="" style="rounded=0;whiteSpace=wrap;html=1;fillColor=#f8cecc;strokeColor=#b85450;shadow=1;" vertex="1" parent="1">
          <mxGeometry x="780" y="760" width="770" height="130" as="geometry" />
        </mxCell>
        <mxCell id="d2fqO_VrkGDKA1mTlmpz-65" value="预测每个掩蔽Token" style="rounded=1;whiteSpace=wrap;html=1;fillColor=#f5f5f5;strokeColor=#666666;fontColor=#333333;" vertex="1" parent="1">
          <mxGeometry x="915" y="780" width="95" height="91" as="geometry" />
        </mxCell>
        <mxCell id="d2fqO_VrkGDKA1mTlmpz-66" value="模版提取" style="rounded=1;whiteSpace=wrap;html=1;fillColor=#f5f5f5;strokeColor=#666666;fontColor=#333333;" vertex="1" parent="1">
          <mxGeometry x="1320" y="780" width="95" height="86.5" as="geometry" />
        </mxCell>
        <mxCell id="d2fqO_VrkGDKA1mTlmpz-67" value="" style="endArrow=classic;html=1;rounded=0;entryX=0.5;entryY=0;entryDx=0;entryDy=0;" edge="1" parent="1" target="d2fqO_VrkGDKA1mTlmpz-1">
          <mxGeometry width="50" height="50" relative="1" as="geometry">
            <mxPoint x="1164.5" y="265" as="sourcePoint" />
            <mxPoint x="1165" y="300" as="targetPoint" />
          </mxGeometry>
        </mxCell>
        <mxCell id="d2fqO_VrkGDKA1mTlmpz-69" value="Feed Forward" style="text;html=1;align=center;verticalAlign=middle;whiteSpace=wrap;rounded=0;" vertex="1" parent="1">
          <mxGeometry x="1200" y="436" width="100" height="30" as="geometry" />
        </mxCell>
        <mxCell id="d2fqO_VrkGDKA1mTlmpz-70" value="&lt;span style=&quot;color: rgb(0, 0, 0); font-family: Helvetica; font-size: 12px; font-style: normal; font-variant-ligatures: normal; font-variant-caps: normal; font-weight: 400; letter-spacing: normal; orphans: 2; text-align: center; text-indent: 0px; text-transform: none; widows: 2; word-spacing: 0px; -webkit-text-stroke-width: 0px; background-color: rgb(251, 251, 251); text-decoration-thickness: initial; text-decoration-style: initial; text-decoration-color: initial; float: none; display: inline !important;&quot;&gt;原始日志: PacketResponder 1 for block blk_387878213782378812 terminating&lt;/span&gt;" style="text;whiteSpace=wrap;html=1;" vertex="1" parent="1">
          <mxGeometry x="965" y="-20" width="420" height="40" as="geometry" />
        </mxCell>
        <mxCell id="d2fqO_VrkGDKA1mTlmpz-72" value="" style="endArrow=classic;html=1;rounded=0;entryX=0.5;entryY=0;entryDx=0;entryDy=0;" edge="1" parent="1" target="d2fqO_VrkGDKA1mTlmpz-64">
          <mxGeometry width="50" height="50" relative="1" as="geometry">
            <mxPoint x="1164.5" y="740" as="sourcePoint" />
            <mxPoint x="1164.5" y="770" as="targetPoint" />
          </mxGeometry>
        </mxCell>
        <mxCell id="d2fqO_VrkGDKA1mTlmpz-73" value="Jaccard合并" style="rounded=1;whiteSpace=wrap;html=1;fillColor=#f5f5f5;strokeColor=#666666;fontColor=#333333;" vertex="1" parent="1">
          <mxGeometry x="1117.5" y="780" width="95" height="91" as="geometry" />
        </mxCell>
        <mxCell id="d2fqO_VrkGDKA1mTlmpz-74" value="模版提取" style="text;html=1;align=center;verticalAlign=middle;whiteSpace=wrap;rounded=0;fontSize=14;fontStyle=0" vertex="1" parent="1">
          <mxGeometry x="805" y="770" width="60" height="30" as="geometry" />
        </mxCell>
      </root>
    </mxGraphModel>
  </diagram>
</mxfile>
